<svg width="64" height="25" viewBox="0 0 64 25" fill="none" xmlns="http://www.w3.org/2000/svg">
<path d="M13.538 21.008V24H8.574C7.64467 24 6.908 23.9887 6.364 23.966C5.84267 23.9207 5.18533 23.7847 4.392 23.558C3.59867 23.3087 2.93 22.946 2.386 22.47C1.54733 21.6993 1.00333 20.7813 0.754 19.716C0.504667 18.628 0.38 17.3587 0.38 15.908V0.199998H3.576V15.84C3.576 17.1547 3.72333 18.186 4.018 18.934C4.60733 20.3167 5.84267 21.008 7.724 21.008H13.538ZM22.5623 24H19.5703V10.536H16.7823L18.1423 7.68H22.5623V24ZM19.4343 4.28C19.1397 3.89467 18.9923 3.47533 18.9923 3.022C18.9923 2.56867 19.1397 2.16067 19.4343 1.798C19.729 1.41267 20.1823 1.22 20.7943 1.22C21.4063 1.22 21.8597 1.41267 22.1543 1.798C22.449 2.16067 22.5963 2.56867 22.5963 3.022C22.5963 3.47533 22.449 3.89467 22.1543 4.28C21.8597 4.64267 21.4063 4.824 20.7943 4.824C20.1823 4.824 19.729 4.64267 19.4343 4.28ZM30.6772 9.822C32.2639 8.16733 34.2472 7.34 36.6272 7.34C37.7832 7.34 38.8599 7.56667 39.8572 8.02C40.8772 8.45067 41.7612 9.05133 42.5092 9.822C43.2799 10.5927 43.8805 11.4993 44.3112 12.542C44.7419 13.562 44.9572 14.6613 44.9572 15.84C44.9572 17.0187 44.7419 18.1293 44.3112 19.172C43.9032 20.192 43.3252 21.0873 42.5772 21.858C41.8292 22.6287 40.9452 23.2407 39.9252 23.694C38.9052 24.1247 37.8059 24.34 36.6272 24.34C35.4259 24.34 34.3152 24.1247 33.2952 23.694C32.2979 23.2407 31.4252 22.6287 30.6772 21.858C29.9292 21.0873 29.3399 20.192 28.9092 19.172C28.5012 18.1293 28.2972 17.0187 28.2972 15.84C28.2972 13.4373 29.0905 11.4313 30.6772 9.822ZM36.6272 10.196C35.0405 10.196 33.7599 10.7173 32.7852 11.76C31.8332 12.8027 31.3572 14.1627 31.3572 15.84C31.3572 17.5173 31.8332 18.8773 32.7852 19.92C33.7599 20.9627 35.0405 21.484 36.6272 21.484C38.2365 21.484 39.5172 20.9627 40.4692 19.92C41.4212 18.8547 41.8972 17.4947 41.8972 15.84C41.8972 14.1853 41.4212 12.8367 40.4692 11.794C39.5172 10.7287 38.2365 10.196 36.6272 10.196ZM50.3998 7.68H56.2818C58.7978 7.68 60.5998 8.054 61.6878 8.802C62.6625 9.45933 63.2745 10.2527 63.5238 11.182C63.7958 12.0887 63.9318 13.29 63.9318 14.786V24H60.9398V14.82C60.9398 14.412 60.9285 14.072 60.9058 13.8C60.8832 13.5053 60.8038 13.1427 60.6678 12.712C60.5318 12.2587 60.3392 11.896 60.0898 11.624C59.8405 11.3293 59.4778 11.08 59.0018 10.876C58.5258 10.6493 57.9478 10.536 57.2678 10.536H53.3918V24H50.3998V7.68Z" fill="white"/>
</svg>
