<svg width="104" height="49" viewBox="0 0 104 49" fill="none" xmlns="http://www.w3.org/2000/svg">
<path d="M46.737 35.392V39H40.751C39.6303 39 38.742 38.9863 38.086 38.959C37.4573 38.9043 36.6647 38.7403 35.708 38.467C34.7513 38.1663 33.945 37.729 33.289 37.155C32.2777 36.2257 31.6217 35.1187 31.321 33.834C31.0203 32.522 30.87 30.9913 30.87 29.242V10.3H34.724V29.16C34.724 30.7453 34.9017 31.989 35.257 32.891C35.9677 34.5583 37.4573 35.392 39.726 35.392H46.737ZM55.5693 39H51.9613V22.764H48.5993L50.2393 19.32H55.5693V39ZM51.7973 15.22C51.442 14.7553 51.2643 14.2497 51.2643 13.703C51.2643 13.1563 51.442 12.6643 51.7973 12.227C52.1526 11.7623 52.6993 11.53 53.4373 11.53C54.1753 11.53 54.722 11.7623 55.0773 12.227C55.4326 12.6643 55.6103 13.1563 55.6103 13.703C55.6103 14.2497 55.4326 14.7553 55.0773 15.22C54.722 15.6573 54.1753 15.876 53.4373 15.876C52.6993 15.876 52.1526 15.6573 51.7973 15.22ZM63.3048 21.903C65.2182 19.9077 67.6098 18.91 70.4798 18.91C71.8738 18.91 73.1722 19.1833 74.3748 19.73C75.6048 20.2493 76.6708 20.9737 77.5728 21.903C78.5022 22.8323 79.2265 23.9257 79.7458 25.183C80.2652 26.413 80.5248 27.7387 80.5248 29.16C80.5248 30.5813 80.2652 31.9207 79.7458 33.178C79.2538 34.408 78.5568 35.4877 77.6548 36.417C76.7528 37.3463 75.6868 38.0843 74.4568 38.631C73.2268 39.1503 71.9012 39.41 70.4798 39.41C69.0312 39.41 67.6918 39.1503 66.4618 38.631C65.2592 38.0843 64.2068 37.3463 63.3048 36.417C62.4028 35.4877 61.6922 34.408 61.1728 33.178C60.6808 31.9207 60.4348 30.5813 60.4348 29.16C60.4348 26.2627 61.3915 23.8437 63.3048 21.903ZM70.4798 22.354C68.5665 22.354 67.0222 22.9827 65.8468 24.24C64.6988 25.4973 64.1248 27.1373 64.1248 29.16C64.1248 31.1827 64.6988 32.8227 65.8468 34.08C67.0222 35.3373 68.5665 35.966 70.4798 35.966C72.4205 35.966 73.9648 35.3373 75.1128 34.08C76.2608 32.7953 76.8348 31.1553 76.8348 29.16C76.8348 27.1647 76.2608 25.5383 75.1128 24.281C73.9648 22.9963 72.4205 22.354 70.4798 22.354ZM85.038 19.32H92.131C95.165 19.32 97.338 19.771 98.65 20.673C99.8254 21.4657 100.563 22.4223 100.864 23.543C101.192 24.6363 101.356 26.085 101.356 27.889V39H97.748V27.93C97.748 27.438 97.7344 27.028 97.707 26.7C97.6797 26.3447 97.584 25.9073 97.42 25.388C97.256 24.8413 97.0237 24.404 96.723 24.076C96.4224 23.7207 95.985 23.42 95.411 23.174C94.837 22.9007 94.14 22.764 93.32 22.764H88.646V39H85.038V19.32Z" fill="white"/>
<path d="M0 14C0 11.7909 1.79086 10 4 10H9V15C9 17.2091 7.20914 19 5 19H0V14Z" fill="white"/>
<path d="M0 25C0 22.7909 1.79086 21 4 21H9V25C9 27.2091 7.20914 29 5 29H0V25Z" fill="white"/>
<path d="M0 35C0 32.7909 1.79086 31 4 31H9V36C9 38.2091 7.20914 40 5 40H0V35Z" fill="white"/>
</svg>
